<svg height="512pt" viewBox="0 -101 512 512" width="512pt" xmlns="http://www.w3.org/2000/svg"><path d="m315.558594 309.289062h-273.761719c-23.082031 0-41.796875-18.710937-41.796875-41.796874v-225.695313c0-23.082031 18.714844-41.796875 41.796875-41.796875h273.761719c23.082031 0 41.796875 18.714844 41.796875 41.796875v225.695313c0 23.085937-18.714844 41.796874-41.796875 41.796874zm0 0" fill="#757575"/><path d="m328.226562 1.960938c1.269532 3.996093 1.960938 8.25 1.960938 12.667968v246.597656c0 11.539063-9.355469 20.894532-20.898438 20.894532h-294.660156c-4.417968 0-8.671875-.6875-12.667968-1.957032 5.367187 16.886719 21.171874 29.125 39.835937 29.125h273.761719c23.085937 0 41.796875-18.710937 41.796875-41.792968v-225.699219c0-18.667969-12.238281-34.46875-29.128907-39.835937zm0 0" fill="#595959"/><path d="m512 288.390625v-267.492187c0-11.542969-9.355469-20.898438-20.898438-20.898438h-6.269531c-11.542969 0-20.898437 9.355469-20.898437 20.898438v267.492187c0 11.542969 9.355468 20.898437 20.898437 20.898437h6.269531c11.542969 0 20.898438-9.355468 20.898438-20.898437zm0 0" fill="#757575"/><path d="m492.945312.09375c.148438.996094.246094 2.003906.246094 3.042969v267.492187c0 11.542969-9.355468 20.898438-20.898437 20.898438h-6.269531c-.621094 0-1.234376-.039063-1.84375-.09375 1.476562 10.097656 10.148437 17.855468 20.652343 17.855468h6.269531c11.542969 0 20.898438-9.355468 20.898438-20.898437v-267.492187c0-10.917969-8.378906-19.871094-19.054688-20.804688zm0 0" fill="#595959"/><path d="m62.695312 225.699219v-142.105469c0-11.542969 9.355469-20.898438 20.898438-20.898438h190.167969c11.542969 0 20.898437 9.355469 20.898437 20.898438v142.105469c0 11.539062-9.355468 20.898437-20.898437 20.898437h-190.167969c-11.542969 0-20.898438-9.359375-20.898438-20.898437zm0 0" fill="#ff5f5f"/><path d="m273.761719 62.695312v140.015626c0 11.542968-9.355469 20.898437-20.898438 20.898437h-190.167969v2.089844c0 11.539062 9.355469 20.898437 20.898438 20.898437h190.167969c11.542969 0 20.898437-9.359375 20.898437-20.898437v-142.105469c0-11.542969-9.355468-20.898438-20.898437-20.898438zm0 0" fill="#ff3939"/><path d="m463.933594 283.167969-106.578125-34.480469v-188.082031l106.578125-34.484375zm0 0" fill="#d8d8d8"/><path d="m443.035156 32.882812v192.835938c0 14.183594-13.832031 24.25-27.328125 19.882812l-22.988281-7.4375c-8.625-2.792968-14.464844-10.820312-14.464844-19.882812v-164.4375l-20.898437 6.761719v188.082031l106.578125 34.480469v-257.046875zm0 0" fill="#bababa"/><path d="m234.058594 189.648438h-110.761719c-19.300781 0-35.003906-15.703126-35.003906-35.003907s15.703125-35.003906 35.003906-35.003906 35.003906 15.703125 35.003906 35.003906c0 4.328125-3.507812 7.835938-7.835937 7.835938s-7.835938-3.507813-7.835938-7.835938c0-10.660156-8.671875-19.332031-19.332031-19.332031s-19.332031 8.671875-19.332031 19.332031c0 10.660157 8.671875 19.332031 19.332031 19.332031h110.757813c10.660156 0 19.332031-8.671874 19.332031-19.332031 0-10.660156-8.671875-19.332031-19.332031-19.332031-10.65625 0-19.328126 8.671875-19.328126 19.332031 0 4.328125-3.511718 7.835938-7.839843 7.835938s-7.835938-3.507813-7.835938-7.835938c0-19.300781 15.703125-35.003906 35.003907-35.003906 19.300781 0 35.003906 15.703125 35.003906 35.003906s-15.699219 35.003907-35 35.003907zm0 0" fill="#595959"/></svg>